<svg width="78" height="114" viewBox="0 0 78 114" fill="none" xmlns="http://www.w3.org/2000/svg">
<path fill-rule="evenodd" clip-rule="evenodd" d="M21.0609 6.01749C19.776 33.3697 -2.10614 55.3343 -29.424 56.7497H71.5464C44.2282 55.3346 22.3457 33.3699 21.0609 6.01749ZM-35.0354 56.7497C-35.3386 56.734 -35.6412 56.7157 -35.9431 56.695L-35.998 56.7497H-35.0354ZM21.0609 0.926508C21.0739 0.64928 21.089 0.372601 21.1063 0.0964959L21.0094 0C21.0292 0.308131 21.0463 0.616975 21.0609 0.926508ZM77.1564 56.7497C77.423 56.7359 77.689 56.7201 77.9544 56.7024L78.0019 56.7497H77.1564Z" fill="white"/>
<path fill-rule="evenodd" clip-rule="evenodd" d="M20.9411 107.298C22.2259 79.9459 44.1083 57.9811 71.4263 56.5659L-29.5448 56.5659C-2.22647 57.9808 19.6563 79.9456 20.9411 107.298ZM77.037 56.5659C77.3403 56.5816 77.643 56.5999 77.945 56.6206L78 56.5659L77.037 56.5659ZM20.9411 112.389C20.9281 112.666 20.9129 112.943 20.8957 113.219L20.9926 113.316C20.9728 113.007 20.9556 112.699 20.9411 112.389ZM-35.154 56.5659C-35.4207 56.5797 -35.6868 56.5955 -35.9525 56.6132L-35.9999 56.5659L-35.154 56.5659Z" fill="white"/>
</svg>
